<?xml version="1.0" standalone="no"?>
<!DOCTYPE svg PUBLIC "-//W3C//DTD SVG 20010904//EN"
 "http://www.w3.org/TR/2001/REC-SVG-20010904/DTD/svg10.dtd">
<svg version="1.0" xmlns="http://www.w3.org/2000/svg"
 width="800.000000pt" height="575.000000pt" viewBox="0 0 800.000000 575.000000"
 preserveAspectRatio="xMidYMid meet">

<g transform="translate(0.000000,575.000000) scale(0.100000,-0.100000)"
fill="#000000" stroke="none">
<path d="M3750 4385 l0 -115 -35 0 c-39 0 -37 3 -39 -95 l-1 -60 -37 -3 -38
-3 0 -793 0 -793 400 -1 400 -1 0 798 0 798 -27 -2 c-47 -3 -50 2 -50 78 l1
72 -37 3 -37 3 0 115 0 114 -250 0 -250 0 0 -115z m434 10 c4 -24 4 -60 0 -80
-3 -19 -3 -51 0 -70 6 -32 10 -35 41 -35 l35 0 0 -80 0 -80 40 0 40 0 0 -730
c0 -642 -2 -730 -15 -730 -12 0 -15 13 -15 60 0 57 -1 60 -25 60 -24 0 -25 -3
-25 -60 0 -47 -3 -60 -15 -60 -12 0 -15 13 -15 60 0 58 -1 60 -26 60 -26 0
-26 0 -19 -60 7 -60 7 -60 -19 -60 l-26 0 0 795 0 795 -30 0 -30 0 0 -735 0
-735 -25 0 -25 0 0 735 0 735 -30 0 -30 0 0 -735 0 -735 -25 0 -25 0 0 735 0
735 -30 0 -30 0 0 -795 c0 -772 -1 -795 -19 -795 -15 0 -20 10 -26 55 -5 45
-10 55 -26 55 -16 0 -19 -7 -19 -55 0 -41 -4 -55 -15 -55 -10 0 -15 15 -17 58
-3 49 -6 57 -23 57 -17 0 -20 -8 -23 -57 -2 -43 -7 -58 -17 -58 -13 0 -15 99
-15 730 l0 730 40 0 40 0 0 80 0 80 38 0 37 0 -1 108 c0 59 1 110 3 115 2 4
84 7 182 7 l179 0 6 -45z"/>
<path d="M3860 4310 l0 -100 25 0 25 0 0 100 0 100 -25 0 -25 0 0 -100z"/>
<path d="M3940 4310 c0 -97 1 -100 23 -100 21 0 22 3 21 88 -1 113 -1 112 -24
112 -19 0 -20 -7 -20 -100z"/>
<path d="M4020 4408 c-14 -137 -8 -198 21 -198 17 0 19 8 19 100 0 93 -1 100
-20 100 -11 0 -20 -1 -20 -2z"/>
<path d="M4090 4310 l0 -100 25 0 25 0 0 100 0 100 -25 0 -25 0 0 -100z"/>
<path d="M3770 4115 c0 -63 1 -66 22 -63 20 3 22 8 21 63 -1 53 -3 60 -22 63
-20 3 -21 -1 -21 -63z"/>
<path d="M4186 4164 c-17 -43 -1 -114 25 -114 17 0 19 8 19 65 0 57 -2 65 -19
65 -10 0 -22 -7 -25 -16z"/>
<path d="M4184 3996 c-10 -26 1 -51 24 -54 19 -3 22 1 22 32 0 30 -4 36 -20
36 -11 0 -23 -6 -26 -14z"/>
<path d="M4262 3978 c2 -25 8 -33 23 -33 15 0 21 8 23 33 3 29 1 32 -23 32
-24 0 -26 -3 -23 -32z"/>
<path d="M3690 3970 c0 -25 4 -30 25 -30 21 0 25 5 25 30 0 25 -4 30 -25 30
-21 0 -25 -5 -25 -30z"/>
<path d="M3770 3970 c0 -23 4 -30 20 -30 16 0 20 7 20 30 0 23 -4 30 -20 30
-16 0 -20 -7 -20 -30z"/>
<path d="M3690 3880 c0 -25 4 -30 25 -30 21 0 25 5 25 30 0 25 -4 30 -25 30
-21 0 -25 -5 -25 -30z"/>
<path d="M3772 3878 c2 -25 8 -33 23 -33 16 0 20 7 20 30 0 24 -5 31 -23 33
-21 3 -23 0 -20 -30z"/>
<path d="M4190 3880 c0 -23 4 -30 20 -30 16 0 20 7 20 30 0 23 -4 30 -20 30
-16 0 -20 -7 -20 -30z"/>
<path d="M4260 3880 c0 -25 4 -30 25 -30 21 0 25 5 25 30 0 25 -4 30 -25 30
-21 0 -25 -5 -25 -30z"/>
<path d="M3697 3814 c-4 -4 -7 -20 -7 -36 0 -23 4 -28 26 -28 23 0 25 3 22 32
-3 31 -25 48 -41 32z"/>
<path d="M4180 3790 c0 -25 4 -30 25 -30 21 0 25 5 25 30 0 25 -4 30 -25 30
-21 0 -25 -5 -25 -30z"/>
<path d="M4260 3790 c0 -25 4 -30 25 -30 21 0 25 5 25 30 0 25 -4 30 -25 30
-21 0 -25 -5 -25 -30z"/>
<path d="M3770 3780 c0 -23 4 -30 20 -30 16 0 20 7 20 30 0 23 -4 30 -20 30
-16 0 -20 -7 -20 -30z"/>
<path d="M4188 3700 c-4 -26 -1 -30 19 -30 19 0 23 5 23 30 0 23 -5 30 -19 30
-13 0 -20 -9 -23 -30z"/>
<path d="M4260 3700 c0 -25 4 -30 25 -30 21 0 25 5 25 30 0 25 -4 30 -25 30
-21 0 -25 -5 -25 -30z"/>
<path d="M3690 3690 c0 -25 4 -30 25 -30 21 0 25 5 25 30 0 25 -4 30 -25 30
-21 0 -25 -5 -25 -30z"/>
<path d="M3770 3690 c0 -23 5 -30 19 -30 19 0 31 18 31 46 0 8 -10 14 -25 14
-21 0 -25 -5 -25 -30z"/>
<path d="M4185 3630 c-11 -18 7 -60 26 -60 15 0 19 7 19 35 0 28 -4 35 -19 35
-11 0 -22 -4 -26 -10z"/>
<path d="M4267 3633 c-4 -3 -7 -19 -7 -35 0 -23 4 -28 25 -28 22 0 25 4 25 35
0 27 -4 35 -18 35 -10 0 -22 -3 -25 -7z"/>
<path d="M3690 3600 c0 -25 4 -30 25 -30 21 0 25 5 25 30 0 25 -4 30 -25 30
-21 0 -25 -5 -25 -30z"/>
<path d="M3770 3600 c0 -26 4 -30 26 -30 22 0 25 3 20 23 -3 12 -6 25 -6 30 0
4 -9 7 -20 7 -16 0 -20 -7 -20 -30z"/>
<path d="M3692 3508 c2 -25 8 -33 23 -33 15 0 21 8 23 33 3 29 1 32 -23 32
-24 0 -26 -3 -23 -32z"/>
<path d="M3770 3510 c0 -39 35 -43 42 -5 6 29 2 35 -24 35 -13 0 -18 -8 -18
-30z"/>
<path d="M4186 3524 c-12 -31 -6 -44 19 -44 21 0 25 5 25 30 0 23 -5 30 -19
30 -10 0 -22 -7 -25 -16z"/>
<path d="M4260 3510 c0 -25 4 -30 25 -30 21 0 25 5 25 30 0 25 -4 30 -25 30
-21 0 -25 -5 -25 -30z"/>
<path d="M3697 3444 c-4 -4 -7 -20 -7 -36 0 -23 4 -28 26 -28 23 0 25 3 22 32
-3 31 -25 48 -41 32z"/>
<path d="M4188 3420 c3 -21 10 -30 23 -30 14 0 19 7 19 30 0 25 -4 30 -23 30
-20 0 -23 -4 -19 -30z"/>
<path d="M4260 3420 c0 -25 4 -30 25 -30 21 0 25 5 25 30 0 25 -4 30 -25 30
-21 0 -25 -5 -25 -30z"/>
<path d="M3770 3409 c0 -26 3 -30 23 -27 16 2 23 11 25 31 3 23 0 27 -22 27
-22 0 -26 -4 -26 -31z"/>
<path d="M4187 3353 c-4 -3 -7 -17 -7 -30 0 -18 5 -23 25 -23 21 0 25 5 25 30
0 22 -5 30 -18 30 -10 0 -22 -3 -25 -7z"/>
<path d="M4260 3330 c0 -25 4 -30 25 -30 21 0 25 5 25 30 0 25 -4 30 -25 30
-21 0 -25 -5 -25 -30z"/>
<path d="M3690 3320 c0 -25 4 -30 25 -30 21 0 25 5 25 30 0 25 -4 30 -25 30
-21 0 -25 -5 -25 -30z"/>
<path d="M3770 3320 c0 -23 4 -30 20 -30 16 0 20 7 20 30 0 23 -4 30 -20 30
-16 0 -20 -7 -20 -30z"/>
<path d="M4190 3236 c0 -30 4 -36 21 -36 17 0 20 5 17 32 -2 22 -9 34 -20 36
-15 3 -18 -4 -18 -32z"/>
<path d="M4262 3238 c2 -25 8 -34 26 -36 19 -3 22 1 22 32 0 32 -3 36 -26 36
-23 0 -25 -3 -22 -32z"/>
<path d="M3690 3230 c0 -25 4 -30 25 -30 21 0 25 5 25 30 0 25 -4 30 -25 30
-21 0 -25 -5 -25 -30z"/>
<path d="M3770 3229 c0 -26 3 -30 23 -27 16 2 23 11 25 31 3 23 0 27 -22 27
-22 0 -26 -4 -26 -31z"/>
<path d="M3690 3140 c0 -25 4 -30 25 -30 21 0 25 5 25 30 0 25 -4 30 -25 30
-21 0 -25 -5 -25 -30z"/>
<path d="M3770 3135 c0 -28 4 -35 19 -35 25 0 30 9 24 43 -4 18 -12 27 -24 27
-15 0 -19 -7 -19 -35z"/>
<path d="M4180 3156 c0 -28 12 -46 31 -46 14 0 19 7 19 30 0 25 -4 30 -25 30
-15 0 -25 -6 -25 -14z"/>
<path d="M4260 3140 c0 -25 4 -30 25 -30 21 0 25 5 25 30 0 25 -4 30 -25 30
-21 0 -25 -5 -25 -30z"/>
<path d="M3776 3072 c-3 -3 -6 -18 -6 -34 0 -21 5 -28 20 -28 13 0 21 7 22 20
0 11 1 25 2 32 1 12 -29 20 -38 10z"/>
<path d="M4186 3058 c-9 -35 -8 -38 19 -38 21 0 25 5 25 30 0 23 -5 30 -19 30
-11 0 -21 -9 -25 -22z"/>
<path d="M4260 3050 c0 -25 4 -30 25 -30 21 0 25 5 25 30 0 25 -4 30 -25 30
-21 0 -25 -5 -25 -30z"/>
<path d="M3690 3040 c0 -25 4 -30 25 -30 21 0 25 5 25 30 0 25 -4 30 -25 30
-21 0 -25 -5 -25 -30z"/>
<path d="M4188 2985 c-13 -13 5 -55 23 -55 14 0 19 7 19 30 0 22 -5 30 -18 30
-10 0 -21 -2 -24 -5z"/>
<path d="M4260 2961 c0 -16 6 -31 13 -34 23 -8 37 5 37 34 0 24 -4 29 -25 29
-21 0 -25 -5 -25 -29z"/>
<path d="M3690 2950 c0 -25 4 -30 25 -30 21 0 25 5 25 30 0 25 -4 30 -25 30
-21 0 -25 -5 -25 -30z"/>
<path d="M3770 2951 c0 -27 4 -31 26 -31 22 0 25 4 22 28 -2 19 -9 28 -25 30
-20 3 -23 -1 -23 -27z"/>
<path d="M4183 2883 c-9 -24 3 -48 25 -51 19 -3 22 1 22 32 0 29 -3 35 -21 33
-12 -1 -23 -7 -26 -14z"/>
<path d="M4262 2868 c2 -25 8 -34 26 -36 19 -3 22 1 22 32 0 32 -3 36 -26 36
-23 0 -25 -3 -22 -32z"/>
<path d="M3690 2860 c0 -25 4 -30 25 -30 21 0 25 5 25 30 0 25 -4 30 -25 30
-21 0 -25 -5 -25 -30z"/>
<path d="M3770 2860 c0 -23 4 -30 20 -30 16 0 20 7 20 30 0 23 -4 30 -20 30
-16 0 -20 -7 -20 -30z"/>
<path d="M3690 2772 c0 -31 25 -51 43 -33 17 17 3 56 -20 59 -19 3 -23 -1 -23
-26z"/>
<path d="M3770 2765 c0 -32 3 -36 23 -33 17 2 22 10 22 33 0 23 -5 31 -22 33
-20 3 -23 -1 -23 -33z"/>
<path d="M4190 2770 c0 -23 4 -30 20 -30 16 0 20 7 20 30 0 23 -4 30 -20 30
-16 0 -20 -7 -20 -30z"/>
<path d="M4260 2770 c0 -25 4 -30 25 -30 21 0 25 5 25 30 0 25 -4 30 -25 30
-21 0 -25 -5 -25 -30z"/>
<path d="M2475 2307 c-60 -29 -87 -57 -114 -117 -57 -126 -1 -291 120 -352 66
-34 166 -39 224 -11 62 29 58 84 -4 62 -19 -7 -60 -9 -98 -6 -52 4 -72 11
-101 34 -52 41 -75 93 -75 167 0 94 43 158 118 172 44 8 121 -26 137 -60 13
-30 48 -35 72 -11 18 19 12 40 -23 78 -38 42 -74 57 -144 63 -52 4 -70 1 -112
-19z"/>
<path d="M2956 2200 c-45 -14 -102 -76 -116 -126 -39 -140 46 -264 180 -264
116 0 188 78 190 204 1 106 -72 187 -173 192 -29 2 -65 -1 -81 -6z m135 -91
c45 -48 52 -138 14 -195 -22 -33 -84 -50 -120 -33 -50 25 -70 63 -70 136 0 60
2 67 33 94 46 41 103 41 143 -2z"/>
<path d="M3330 2201 l-25 -7 -3 -178 c-3 -183 2 -207 36 -201 9 2 23 4 30 4 9
1 12 37 12 146 l0 144 30 16 c39 20 83 19 103 -3 14 -15 17 -42 17 -159 l0
-141 40 -4 40 -4 0 147 c0 166 1 168 74 176 66 8 76 -12 76 -158 0 -103 2
-119 21 -143 22 -28 48 -33 80 -16 25 14 25 47 -1 55 -18 6 -20 15 -20 116 0
156 -26 207 -112 216 -33 4 -54 -1 -91 -21 -47 -25 -48 -25 -67 -6 -38 38
-114 38 -163 0 l-26 -20 -3 22 c-3 25 -13 29 -48 19z"/>
<path d="M3988 2203 c-9 -2 -18 -14 -21 -26 -2 -12 -4 -132 -3 -267 l2 -245
37 -3 37 -3 0 91 0 91 30 -16 c64 -33 159 -12 212 48 49 56 65 167 35 239 -18
44 -74 87 -121 95 -45 7 -122 -21 -138 -50 -12 -21 -13 -20 -18 13 -5 35 -17
43 -52 33z m233 -92 c25 -26 29 -37 29 -88 0 -99 -64 -165 -143 -147 -60 13
-67 23 -67 96 0 37 4 78 10 93 29 76 117 100 171 46z"/>
<path d="M4505 2203 c-39 -11 -66 -36 -63 -57 2 -13 9 -19 18 -17 8 2 42 6 75
9 51 3 64 1 88 -18 17 -14 27 -31 27 -48 l0 -27 -75 3 c-63 4 -79 1 -110 -18
-45 -28 -55 -47 -55 -104 0 -64 38 -106 102 -113 61 -7 89 1 121 32 24 24 26
25 31 7 10 -29 51 -47 84 -36 35 12 41 46 10 59 -22 9 -23 17 -28 126 -5 123
-16 153 -65 185 -25 16 -125 27 -160 17z m108 -220 c35 -5 38 -8 35 -36 -4
-39 -47 -71 -93 -70 -47 1 -67 19 -63 57 5 47 43 62 121 49z"/>
<path d="M4883 2202 c-23 -3 -23 -4 -23 -193 0 -118 4 -189 10 -190 6 -1 22
-2 38 -3 l27 -1 3 147 3 148 29 15 c40 21 93 19 121 -4 22 -18 24 -28 29 -144
6 -138 18 -167 70 -167 46 0 72 52 31 63 -17 4 -19 17 -23 118 -4 124 -18 165
-63 195 -41 27 -104 28 -150 4 -23 -12 -41 -16 -43 -10 -6 16 -34 26 -59 22z"/>
<path d="M5338 2202 c-16 -3 -18 -18 -18 -138 0 -137 10 -185 45 -224 13 -15
12 -19 -10 -40 -27 -25 -34 -75 -15 -111 25 -46 142 -65 213 -35 39 16 82 61
96 99 7 17 11 114 11 238 l0 209 -40 0 -40 0 0 -145 c0 -141 -1 -145 -24 -160
-25 -17 -78 -22 -112 -11 -35 11 -44 49 -44 186 0 72 -3 130 -7 131 -5 0 -15
2 -23 3 -8 1 -23 1 -32 -2z m242 -391 c0 -73 -76 -127 -142 -102 -34 13 -41
36 -23 72 13 24 22 29 53 29 20 0 53 9 72 19 19 11 36 20 38 20 1 1 2 -17 2
-38z"/>
<path d="M3781 1408 c0 -59 2 -109 7 -111 4 -3 6 34 4 81 -4 135 -9 148 -11
30z"/>
<path d="M3642 1484 c-24 -17 -29 -56 -9 -72 6 -6 26 -14 42 -18 41 -9 55 -22
55 -50 0 -29 -29 -43 -80 -38 l-35 3 34 -11 c45 -15 85 5 89 46 4 35 -8 48
-55 61 -20 5 -41 18 -47 28 -16 27 27 61 69 53 22 -4 26 -3 15 4 -22 14 -52
12 -78 -6z"/>
<path d="M3863 1440 c-25 -10 -39 -64 -29 -105 9 -34 48 -52 80 -37 46 21 46
120 0 141 -14 6 -26 11 -27 10 -1 0 -12 -4 -24 -9z m66 -32 c10 -27 4 -77 -11
-95 -40 -49 -100 38 -68 98 16 28 68 26 79 -3z"/>
<path d="M4000 1432 c-18 -14 -23 -30 -24 -66 -1 -58 21 -80 72 -72 22 3 32 1
32 -8 0 -20 -21 -34 -60 -39 -35 -4 -35 -4 5 -5 23 -1 46 3 53 10 7 7 12 45
12 99 0 81 -1 87 -22 93 -35 9 -44 7 -68 -12z m80 -61 c0 -58 -1 -60 -30 -66
-44 -10 -60 8 -60 65 0 25 3 50 7 53 3 4 24 7 45 7 l38 0 0 -59z"/>
<path d="M4145 1440 c-16 -6 -10 -9 25 -11 38 -3 46 -8 48 -26 3 -21 -1 -23
-35 -23 -46 0 -63 -14 -63 -52 0 -32 30 -45 72 -29 15 6 29 6 35 0 5 -5 7 17
5 59 -5 85 -28 107 -87 82z m75 -93 c0 -16 -9 -28 -26 -36 -36 -16 -64 -5 -64
24 0 26 11 33 58 34 27 1 32 -3 32 -22z"/>
<path d="M4312 1439 c-13 -5 -28 -7 -33 -3 -5 3 -8 -26 -7 -68 l2 -73 3 62 c4
56 6 63 28 69 51 13 60 4 66 -71 l6 -70 -1 74 c-1 64 -4 75 -21 81 -11 4 -31
3 -43 -1z"/>
</g>
</svg>
